Coordinates
version=1
nRows=11
nColumns=63
inDegrees=yes

Units are S.I. units (second, meters, Newtons, ...)
If the header above contains a line with 'inDegrees', this indicates whether rotational values are in degrees (yes) or radians (no).

endheader
time	pelvis_tilt	pelvis_list	pelvis_rotation	pelvis_tx	pelvis_ty	pelvis_tz	hip_flexion_r	hip_adduction_r	hip_rotation_r	knee_angle_r	knee_angle_r_beta	ankle_angle_r	subtalar_angle_r	mtp_angle_r	hip_flexion_l	hip_adduction_l	hip_rotation_l	knee_angle_l	knee_angle_l_beta	ankle_angle_l	subtalar_angle_l	mtp_angle_l	L5_S1_Flex_Ext	L5_S1_Lat_Bending	L5_S1_axial_rotation	L4_L5_Flex_Ext	L4_L5_Lat_Bending	L4_L5_axial_rotation	L3_L4_Flex_Ext	L3_L4_Lat_Bending	L3_L4_axial_rotation	L2_L3_Flex_Ext	L2_L3_Lat_Bending	L2_L3_axial_rotation	L1_L2_Flex_Ext	L1_L2_Lat_Bending	L1_L2_axial_rotation	L1_T12_Flex_Ext	L1_T12_Lat_Bending	L1_T12_axial_rotation	Abs_r3	Abs_r2	Abs_r1	Abs_t1	Abs_t2	neck_flexion	neck_bending	neck_rotation	arm_flex_r	arm_add_r	arm_rot_r	elbow_flex_r	pro_sup_r	wrist_flex_r	wrist_dev_r	arm_flex_l	arm_add_l	arm_rot_l	elbow_flex_l	pro_sup_l	wrist_flex_l	wrist_dev_l
      0.00000000	     -2.53378524	     -4.61165115	     82.84494485	      0.21285883	      1.01808332	      0.48344801	      6.64598910	     -2.31608617	      5.66327011	      4.13129860	      0.07210476	     28.84640760	      4.56727550	      0.00000000	      5.07510658	     -0.04717032	     -6.66192514	      3.89724730	      0.06801980	     27.71455896	      0.34595272	      0.00000000	      0.12229568	     -0.48780607	      2.25002284	      0.22711531	     -0.64878207	      2.39064927	      0.20091957	     -1.18605167	      2.39064927	      0.13977173	     -1.18605167	      1.96876999	      0.11356377	     -0.99473413	      1.82814356	      0.06987975	     -0.75561160	      1.68751713	      0.87354581	     -5.51815980	     12.51395204	      0.00000000	      0.00000000	     26.27597642	      6.04619328	     -8.13485385	      3.49142174	    -16.22098242	     39.79007309	     69.97057381	     80.19466851	     12.16746440	     -5.01619667	     12.92443186	    -21.59526747	     56.35131035	     72.57829899	     68.47725712	     -2.27639064	     -4.80196210
      0.01754386	     -2.36966978	     -4.13925385	     84.26613538	      0.21108303	      1.01900372	      0.48241425	      5.66330190	     -2.33830625	      6.21157237	      3.86523717	      0.06746112	     28.71467265	      1.72880646	      0.00000000	      4.90888578	     -0.18434118	     -8.24227551	      4.64821554	      0.08112667	     28.32470260	      3.03240603	      0.00000000	      0.09449039	     -0.47831538	      1.74091530	      0.17547810	     -0.63615946	      1.84972250	      0.15523826	     -1.16297602	      1.84972250	      0.10799307	     -1.16297602	      1.52330089	      0.08774378	     -0.97538073	      1.41449368	      0.05399181	     -0.74091053	      1.30568647	      0.67493541	     -5.41079928	      9.68244861	      0.00000000	      0.00000000	     25.35690227	      6.96098780	     -7.24812038	      4.75938555	    -16.25738809	     42.30111474	     69.74792244	     78.59345191	      9.03505207	     -2.57705255	     12.08394459	    -21.47707949	     55.10632738	     73.65445172	     65.58348199	     -4.17096982	     -0.37719043
      0.03508772	     -2.24288124	     -3.86100873	     85.52552469	      0.20957228	      1.01959987	      0.48115540	      4.87751805	     -2.31720574	      7.21241093	      3.48954255	      0.06090401	     28.27601583	     -1.55591027	      0.00000000	      4.87650055	     -0.33128752	     -9.49516793	      5.22052117	      0.09111528	     28.93228172	      5.57858285	      0.00000000	      0.08273256	     -0.46763101	      1.29805866	      0.15364264	     -0.62194925	      1.37918733	      0.13592132	     -1.13699804	      1.37918733	      0.09455504	     -1.13699804	      1.13580133	      0.07682545	     -0.95359316	      1.05467266	      0.04727338	     -0.72436044	      0.97354399	      0.59095039	     -5.28993554	      7.21941285	      0.00000000	      0.00000000	     24.76852348	      7.62973800	     -6.18118092	      5.63249083	    -16.19961953	     44.19249430	     69.78498722	     76.99992620	      6.46207008	     -0.08674495	     11.37344471	    -21.46313245	     54.29767372	     74.70554680	     61.05120307	     -6.34971724	      3.81794225
      0.05263158	     -2.12000301	     -3.61822801	     86.50065417	      0.20825698	      1.02026068	      0.47988648	      4.34477722	     -2.38693549	      4.24761440	      3.42692640	      0.05981115	     28.84748170	      1.01308247	      0.00000000	      4.68693337	     -0.39428632	     -9.22395701	      5.32627189	      0.09296098	     28.98881047	      6.18489426	      0.00000000	      0.05939938	     -0.45327290	      0.98010970	      0.11031058	     -0.60285296	      1.04136655	      0.09758724	     -1.10208773	      1.04136655	      0.06788755	     -1.10208773	      0.85759599	      0.05515826	     -0.92431410	      0.79633913	      0.03394080	     -0.70211972	      0.73508227	      0.42428381	     -5.12751371	      5.45107611	      0.00000000	      0.00000000	     24.51288144	      7.96980265	     -5.41138806	      6.08096609	    -16.14182330	     45.56784864	     69.81983376	     72.13893251	      4.75998380	      1.96796078	     11.00112354	    -21.32448756	     53.86410989	     75.02912520	     56.85589037	     -7.06333097	      6.53638418
      0.07017544	     -2.11630589	     -3.65131800	     87.34923931	      0.20749666	      1.02028191	      0.47838661	      3.93806245	     -2.34124416	      7.00426760	      2.93888617	      0.05129324	     27.84966567	     -4.24152789	      0.00000000	      4.79359616	     -0.39883453	     -9.30145888	      5.46407200	      0.09536605	     29.26455433	      7.35590211	      0.00000000	      0.07442169	     -0.45076979	      0.65213293	      0.13820851	     -0.59952382	      0.69289123	      0.12226739	     -1.09600167	      0.69289123	      0.08505655	     -1.09600167	      0.57061631	      0.06910798	     -0.91920976	      0.52985800	      0.04252455	     -0.69824241	      0.48909969	      0.53158666	     -5.09919803	      3.62696769	      0.00000000	      0.00000000	     24.47786248	      8.43831289	     -4.05752423	      6.53813699	    -15.96212592	     46.82696521	     69.98769223	     73.76691639	      2.25755696	      2.91752734	     10.34214294	    -21.55559094	     53.71731984	     76.77585826	     46.68909210	    -12.99156688	     10.91818322
      0.08771930	     -2.05430592	     -3.67819810	     88.06768169	      0.20665923	      1.02037649	      0.47699925	      3.66816644	     -2.33158445	      6.61641837	      2.66265867	      0.04647216	     27.68714357	     -4.84317890	      0.00000000	      4.82085688	     -0.42180511	     -8.84356484	      5.41555554	      0.09451927	     29.31590756	      7.90576579	      0.00000000	      0.07641381	     -0.44000498	      0.42411017	      0.14190808	     -0.58520662	      0.45061706	      0.12554025	     -1.06982811	      0.45061706	      0.08733334	     -1.06982811	      0.37109640	      0.07095786	     -0.89725816	      0.34458951	      0.04366285	     -0.68156771	      0.31808263	      0.54581620	     -4.97742434	      2.35877354	      0.00000000	      0.00000000	     24.67441861	      8.69898473	     -3.15541374	      6.67894439	    -15.88279078	     47.84675458	     70.01062180	     71.68114339	      0.40957452	      3.10376704	     10.04757924	    -21.54658084	     53.83145628	     77.56327428	     40.38504306	    -17.28523660	     13.03472830
      0.10526316	     -1.94098321	     -3.74714694	     88.64639763	      0.20595786	      1.02038031	      0.47567655	      3.44977673	     -2.23940094	      7.08698065	      2.29278931	      0.04001672	     27.27327580	     -6.34862333	      0.00000000	      4.85063544	     -0.48219042	     -8.08340673	      5.31455965	      0.09275656	     29.18490840	      7.94674746	      0.00000000	      0.08190362	     -0.42334382	      0.28161137	      0.15210321	     -0.56304728	      0.29921208	      0.13455945	     -1.02931816	      0.29921208	      0.09360764	     -1.02931816	      0.24640995	      0.07605570	     -0.86328272	      0.22880924	      0.04679973	     -0.65575958	      0.21120853	      0.58502934	     -4.78894995	      1.56623795	      0.00000000	      0.00000000	     24.89123373	      8.75451732	     -2.60028220	      6.56372208	    -15.78605319	     48.34172736	     69.86900311	     71.38683724	     -1.15125232	      2.74638404	     10.20598678	    -21.49352162	     54.70889025	     77.76263491	     34.34131434	    -20.40100035	     13.46646719
      0.12280702	     -1.75034617	     -3.73437296	     89.10759166	      0.20517094	      1.02039134	      0.47456823	      3.22215297	     -2.08886586	      6.83657711	      2.02132361	      0.03527875	     27.15734662	     -6.55678870	      0.00000000	      4.77364653	     -0.62690950	     -7.54885719	      5.24778414	      0.09159111	     29.02696466	      8.14660630	      0.00000000	      0.07529242	     -0.39195976	      0.19566251	      0.13982555	     -0.52130649	      0.20789142	      0.12369791	     -0.95301097	      0.20789142	      0.08605170	     -0.95301097	      0.17120470	      0.06991654	     -0.79928435	      0.15897579	      0.04302209	     -0.60714567	      0.14674688	      0.53780620	     -4.43392724	      1.08821618	      0.00000000	      0.00000000	     24.97273473	      8.70198410	     -1.98089378	      6.36808644	    -15.71004593	     48.57635268	     69.47392476	     71.26060499	     -2.22509240	      2.08142732	     10.47273517	    -21.25260477	     55.59956677	     77.16104929	     33.57458890	    -21.20571158	     14.02998550
      0.14035088	     -1.56784862	     -3.71839781	     89.43075941	      0.20460949	      1.02033592	      0.47377528	      3.06084231	     -1.91863381	      7.03401868	      1.77900766	      0.03104954	     27.00041581	     -7.16368028	      0.00000000	      4.69724861	     -0.73548834	     -6.30285724	      5.20285981	      0.09080703	     28.70132331	      7.04184325	      0.00000000	      0.07320989	     -0.36558729	      0.16429189	      0.13595809	     -0.48623109	      0.17456013	      0.12027653	     -0.88888893	      0.17456013	      0.08367158	     -0.88888893	      0.14375540	      0.06798270	     -0.74550560	      0.13348716	      0.04183213	     -0.56629471	      0.12321892	      0.52293092	     -4.13559653	      0.91374220	      0.00000000	      0.00000000	     24.96210157	      8.58579326	     -1.82260068	      6.39627472	    -15.68941190	     49.60435412	     68.74979095	     69.45624834	     -4.54953776	      0.46568539	     11.02301469	    -21.04665572	     57.64510270	     76.51480265	     30.39018695	    -23.35580856	     11.55209914
      0.15789474	     -1.30896650	     -3.65718424	     89.77480705	      0.20386169	      1.02034543	      0.47325520	      2.88458959	     -1.68477879	      7.02785953	      1.55922089	      0.02721354	     26.96624181	     -7.35107671	      0.00000000	      4.61630956	     -0.96070291	     -5.72418661	      5.20046551	      0.09076525	     28.70115008	      7.07675486	      0.00000000	      0.06470213	     -0.32778731	      0.19567268	      0.12015832	     -0.43595713	      0.20790222	      0.10629912	     -0.79698207	      0.20790222	      0.07394806	     -0.79698207	      0.17121359	      0.06008239	     -0.66842389	      0.15898405	      0.03697080	     -0.50774255	      0.14675451	      0.46216082	     -3.70799564	      1.08827274	      0.00000000	      0.00000000	     24.88702752	      8.22860516	     -1.91972352	      6.01238265	    -15.55477801	     49.42004423	     67.90278923	     69.24954945	     -5.72322257	     -0.39439225	     11.86795389	    -20.60969470	     59.90595675	     75.10796289	     31.39457973	    -23.31519768	     10.03943549
      0.17543860	     -1.21652270	     -3.65222735	     89.84400414	      0.20370460	      1.02020600	      0.47288234	      2.86131399	     -1.59449217	      7.17086806	      1.42690011	      0.02490411	     27.22538556	     -7.34354512	      0.00000000	      4.57840431	     -1.04079386	     -5.55674275	      5.14384564	      0.08977704	     28.92906686	      7.13485059	      0.00000000	      0.06712493	     -0.31586595	      0.19946663	      0.12465770	     -0.42010172	      0.21193330	      0.11027954	     -0.76799647	      0.21193330	      0.07671708	     -0.76799647	      0.17453330	      0.06233221	     -0.64411385	      0.16206664	      0.03835518	     -0.48927636	      0.14959997	      0.47946665	     -3.57313882	      1.10937357	      0.00000000	      0.00000000	     24.96662284	      8.18723515	     -1.91476113	      5.91929527	    -15.14717237	     49.39574433	     66.81609563	     69.19747595	     -6.02571650	     -0.27519012	     11.79736429	    -20.22339385	     60.38709912	     74.10474386	     31.51915116	    -23.41992494	      9.89698730
